<?xml version="1.0" encoding="UTF-8"?><svg id="Layer_1" xmlns="http://www.w3.org/2000/svg" viewBox="0 0 2000 1133.1"><defs><style>.cls-1{fill:#161617;}</style></defs><path class="cls-1" d="M496.13,861.43l-114.29,115.91h41.19l19.81-20.68h77.01l3.47,20.68h39.76l-18.25-115.91h-48.72ZM465.63,932.5l44.29-46.23,7.11,46.23h-51.4Z"/><polygon class="cls-1" points="663.24 861.43 626.88 861.43 579.76 977.34 698.33 977.34 709.96 948.67 627.75 948.67 663.24 861.43"/><polygon class="cls-1" points="800.98 861.43 764.62 861.43 717.5 977.34 836.07 977.34 847.7 948.67 765.49 948.67 800.98 861.43"/><polygon class="cls-1" points="864.09 934.15 926.06 934.15 938.04 904.61 876.07 904.61 864.09 934.15"/><path class="cls-1" d="M1108.19,864.56c-8.16-3.3-16.81-4-52.45-4-46.75,0-62.31,2.78-74.14,13.38-8.17,7.3-16.88,24.15-19.38,37.54-1.72,9.21,1.65,15.12,10.08,17.9,5.41,1.74,15.27,2.61,31.57,2.61h32.95q18.95.17,22.31,1.39c2.53.87,3.68,3.3,3.06,6.6-1.46,7.82-6.44,11.47-17.6,12.69-4.57.52-19.87.87-34.91.87-9.13,0-18.89-.52-22.16-1.22-3.1-.69-4.67-2.78-4.09-5.91.33-1.74.73-2.95,1.86-6.08h-35.64c-4.02,9.04-5.24,12.69-6.22,17.9-1.79,9.56,2.19,15.12,12.84,17.55,8.96,1.91,18.53,2.43,50.05,2.43,49.79,0,65.35-2.78,77.11-13.9,8.27-7.82,16.25-23.63,18.72-36.84,1.66-8.86-.67-14.6-7.28-17.55-4.74-2.43-8.94-2.95-22.1-3.48-9.43-.35-15.48-.52-17.63-.52h-33.85c-14.44-.35-14.62-.35-17.31-2.26-1.42-1.04-2.13-2.95-1.68-5.39,1.24-6.6,6.56-11.12,14.03-11.82,5.83-.52,21.87-1.04,36.73-1.04,20.95,0,25.02,1.22,23.85,7.47-.16.87-.57,2.09-1.29,4h35.28c3.06-6.78,4.38-10.95,5.16-15.12,1.63-8.69-1.06-14.42-7.89-17.2Z"/><polygon class="cls-1" points="1285.66 861.43 1142.91 861.43 1131.28 890.1 1184.47 890.1 1148.98 977.34 1185.34 977.34 1220.83 890.1 1274.03 890.1 1285.66 861.43"/><path class="cls-1" d="M1336.81,861.43l-114.29,115.91h41.19l19.81-20.68h77.01l3.47,20.68h39.76l-18.25-115.91h-48.72ZM1306.32,932.5l44.29-46.23,7.11,46.23h-51.4Z"/><path class="cls-1" d="M1568.51,861.43h-102.99l-47.12,115.91h36.18l11.91-29.2h55.88c6.99,0,10.5.35,12.34,1.04,3.18,1.22,4.33,3.65,3.62,7.47-.33,1.74-1.11,4-2.07,6.26l-5.74,14.42h36.72l7.53-18.25c4.23-11.12,4.7-12.69,5.19-15.29.78-4.17-.96-7.3-4.46-8.69-2.35-.87-3.92-1.04-9.17-1.74,11.17-2.26,16.53-5.04,22.45-11.82,6.66-7.82,13.56-23.63,16.13-37.36,3.32-17.73-4.69-22.77-36.4-22.77ZM1564,897.92c-.36,1.91-1.54,5.39-2.91,8.86-2.51,5.73-4.21,8.17-7.44,10.08-4,2.26-8.25,2.95-18.82,2.95h-56.95l12.22-29.89h58.21c7.88,0,8.96,0,11.66.87,3.39,1.04,4.72,3.48,4.04,7.13Z"/><path class="cls-1" d="M514.47,784.31l163.15-165.51,231.29.25v165.26h182.18s221.33-173.49,221.33-173.49l447.94,173.49-291.72-295.93,180.4-141.4h-319.79l-238.17-241.61h0s-182.18,0-182.18,0l-238.17,241.61H122.9l466.83,82.18-350.1,355.16h274.84ZM927.48,147.52h163.61v199.46h-360.22l196.62-199.46ZM1091.09,517.41v224.74h-138.73v-165.26l-293.3-.25-163.16,165.51h-154.59l299.66-303.98,450.12,79.24Z"/></svg>