<?xml version="1.0" encoding="UTF-8"?><svg id="Layer_1" xmlns="http://www.w3.org/2000/svg" viewBox="0 0 2000 671.14"><defs><style>.cls-1{fill:#fff;}</style></defs><path class="cls-1" d="M356.17,302.88c2.97-3.62,6.21-7.51,8.85-11.52h-.02s-8.84,11.52-8.84,11.52Z"/><path class="cls-1" d="M601.86,399.85c4.14-.67,8.46-4.47,12.45-5.38,9.62-2.18,19.48,7.38,25.2,14.58l6.72,5.01c-10.09,1.97-16.09-8.03-26.62-5.73-6.24,1.36-13.21,9.14-19.8,10.88l6.12,1.57c9.28-.55,5.03,2.45-.49,4.06-21.97,6.45-40.72-1.77-58.32-16.25-10.03-8.26-19.49-20.95-33.09-23.24-2.5-.42-7.49.23-8.66-.21-.86-.33-6.82-8.26-8.75-10-4.57-4.12-10.79-6.66-16.47-8.48-2.23-.71-3.35,1.07-3.51-2.51,15.42-5.74,31.07-12.12,47.76-12.79.95-.04,1.66-.17,2.07,1-3.04,1.98-7.03,4.44-8.79,7.73,10.05-2.22,19.65-5.26,30.11-3.32,18.74,3.47,29.56,22.09,47.78,26.85,2.72.71,7.18-.37,4.91,2.51-5.08,6.45-10.27,3.16-17,2.35,1.51,7.59,11.83,12.42,18.39,11.36Z"/><path class="cls-1" d="M330.94,240.55c-.79.36-3.1.96-2.45,2.27,9.29,5.34,25.99-3.43,34.19,2.07,4.22,2.83,4.88,7.66.33,10.37-2.02,1.21-14.95,5.72-14.84,8.18.09,1.98,6.58.61,8.08,1.07.95.28,1.12,1.79,2.38,2.49,2.32,1.3,5.18.89,7.61,1.51-1.14,2.14-2.57,4.02-4.14,5.79-2.64,2.98-5.66,5.63-8.29,8.61,1,2.11,6.78,1.37,6.38,3.86l-6.83,8.31-6.78,8.25-9.01,10.95c-.75-3.29-1.51-6.55-2.3-9.74-.6-2.43-1.21-4.83-1.86-7.19-.09-.31-.16-.61-.26-.91-4.36-15.76-10.1-30.38-20.58-43.85-10.9-14-33.62-33.39-49.03-41.26-9.21-4.71-20.77-7.81-30.56-11.54-.79-.3-4.27.76-1.14-1.59,2.62-1.98,13.55-5.51,16.99-6.08,6.35-1.04,12.65.19,18.96.87.44.35.81,1.59-.91,1.44-2.25-.19-3.99.15-6.15.69l-5.85,3.25c11.69,5.39,22.94-6.29,34.16.82-2.91,1.79-6.78,1.41-9.07,4.43,3.28,2.29,8.9,2.29,12.51,1.24,3.38-.98,5.74-4.46,8.95-5.71l-2.08,6.92-4.33,3.96c1.87-.09,3.79.1,5.62-.38,1.51-.4,8.32-6.13,8.16-.68-.16,5.29-8.45,10.16-12.43,12.09,7.8,6.32,12.13.46,18.5-2.3,1.78-.77,9.55-3.24,11.06-3.3l17.41-.64-5.1,10.62-8.94,3.04c-.17.27.5,1.05.83,1.2,4.95,2.33,22.07-2.93,27.02-5.75.8-.46,7.15-6.45,6.59-2.97-2.71,17.11-21.66,14.52-32.81,19.62Z"/><path class="cls-1" d="M204.13,212.37c-2.36-.37-13-16.22-7.24-19.27,1.8-.49,13.2,10.44,14.37,12.85,1.1,2.27-5.91,6.61-7.13,6.42Z"/><path class="cls-1" d="M385.53,321.88s93.03-5.23,97.84-5.52c36.24-2.12,55.84-28.08,55.84-28.08l-145.05,13.47c-2.38,7.34-5.38,14.07-8.64,20.14ZM401.44,269.71l46.43-7.03,68.38-10.35c22-3.35,40.64-6.17,50.37-7.68,35.84-5.53,53.16-33.3,53.16-33.3l-94.54,17.93-64.35,12.21-55.35,10.49c-1.49,5.64-2.8,11.55-4.1,17.74ZM419.68,218.61l63.93-15.34,77.57-18.61c20.15-4.85,36.94-8.88,46.23-11.14,39.18-9.5,55.98-41.91,55.98-41.91l-122.07,34.08-14.62,4.26c-1.56.56-4.03,1.24-9.26,2.64-13,3.47-37.19,9.93-59.42,19.25,0,0-.04,0-.09.03-3.85,1.63-7.37,3.21-10.59,4.78h-.04c-.89.35-1.85.77-2.86,1.27-3.05,1.48-5.87,3.08-8.46,4.83-.07.03-.15.08-.22.13-6.65,4.46-11.89,9.73-16.1,15.74ZM407.28,245.76l52.91-10.43,63.87-12.56c28.35-5.58,53.13-10.49,65.17-12.88,38.45-7.69,55.96-38.53,55.96-38.53l-83.45,19.69h-.02s-77.59,18.29-77.59,18.29l-68.72,16.22c-.98,1.8-1.89,3.65-2.75,5.53-2.07,4.6-3.82,9.51-5.36,14.67ZM396.13,294.95l37.11-3.74,65.53-6.59c13.71-1.39,24.95-2.52,31.78-3.22,36.09-3.74,54.63-30.57,54.63-30.57l-67.5,9.32-69.69,9.62-47.93,6.62c-.91,4.51-1.84,9.14-2.84,13.88-.34,1.59-.69,3.15-1.1,4.68ZM76.95,573.82c6.66,2.17,23.29,1.92,28.79-2.55,3.14-2.55,3.3-17.19,4.98-21.79.72-.72,10.12,1.92,13.65-.64,2.08-1.52,4.1-7.88,5.59-10.33,8.09-13.16,18.49-25.77,32.27-32.43,3.21-1.57,7.77-2.23,10.49-4.08,2.98-2.02,5.31-7.81,8.15-10.85,2.11-2.27,5.83-5.09,8.4-6.86,23.93-16.54,49.79-30.36,73.7-47.02l2.87-1.02c29.28,5.54,64.28,25.61,94.2,22.4,7.57-.82,15.22-3.14,22.86-5.24l-.03.04c8.63,9.79,8.25,27.01,17.19,36.63,21.71,23.27,54.48,20.37,82.59,24.8,26.79,4.21,33.56,25.07,48.87,43.38,9.34,11.17,13.86,6.66,22.99,12.54,5.45,3.51,9.83,13.45,16.79,13.41,3.94,0,12.07-3.83,12.43-8.61.24-3.21-4.44-16.41-6.33-19.18-6.03-8.86-15.67-3.25-22.65-5.45-1.97-.61-12.48-8.66-14.44-10.55-11.81-11.27-19.21-31.62-27.69-47.15,13.19,1.07,35.68,4.67,44.11,6.61,12.65,2.9,29.25,24.58,35.5,36.17,4.5,8.35,9.7,26.8,16.27,31.57,5.59,4.04,12.51,3.81,18.54,6.54,7.18,3.27,17.6,13.51,25.96,11.53,4.22-.99,9.76-6.04,9.37-10.91-.18-2.62-6.83-20.51-8.38-22.29-3.92-4.59-16.35-.54-22.08-1.87-1.64-.38-19.19-13.6-20.55-15.4-3.47-4.49-7.27-16.74-10.31-22.78-7.59-14.97-16.03-29.49-24.4-43.99-17.55-5.67-35.47-8.35-50.83-20.1-1.28-2.79-2.39-5.62-3.44-8.51-3.41-8.44-10.02-37.58-33.88-59.52-.16-.17-.34-.34-.54-.51l-.02-.02c-.26-.23-.5-.44-.77-.67-.5-.44-1.01-.88-1.49-1.31-2.84-2.45-5.96-4.66-9.2-6.64-2.68-1.65-5.35-3.04-7.93-4.24-.02,0-.02-.02-.02-.02-.02,0-.04-.01-.04-.01-.71-.33-1.4-.63-2.09-.93-.04-.01-.08-.04-.1-.06-.16-.06-.32-.13-.48-.19-.92-.38-1.83-.75-2.74-1.08-8.36-3.19-17.03-4.86-24.97-4.53-.13,0-.26.01-.38.03-.15,0-.3,0-.46.03-.31.02-.47.03-.47.03-5.97.49-12.03,2.72-18.09,2.82-5.09.07-11.71-1.14-16.75-2.31l-8.39-.42c3.6-4.1,9.15-13.74,29.04-16.05,14.81-1.72,26.2-5.12,28.58-6.05,20.82-7.24,31.47-15.57,31.47-15.57l-100.11,4.43c-11.9,19.92-25.7,31.28-25.7,31.28l.21.14-2.62-.13,2.49-3.53h-.02s.06-.08.08-.1c6.17-7.98,11.13-15.19,15.14-21.84,1.15-1.89,2.2-3.7,3.18-5.48,4.12-7.41,7.05-14.13,9.25-20.54.82-2.38,1.53-4.7,2.18-7.01,1.74-6.38,2.9-12.54,3.89-18.88.35-2.24.67-4.49,1.01-6.78.8-5.6,1.63-11.43,2.74-17.73.36-2.04.75-4.14,1.19-6.3,1.23-6.05,2.79-12.54,4.91-19.67.64-2.14,1.33-4.33,2.07-6.61.1-.28.18-.55.27-.82,3.02-9.14,11.51-17.33,22.69-24.5,34.14-21.97,93.42-34.62,99.06-36.9l117.03-33.97c7.76-5.29,15.76-10.85,22.74-17.41,6.97-6.58,12.92-14.18,16.56-23.58v-.02s-.28.09-.28.09c-85.41,24.12-170.54,52.76-254.09,83.28l-.21.07c-55.09,20.13-47.89,61.25-55.97,107.26h-.02c-.06,2.19-.58,4.38-1.41,6.56,0,.02-.01.02-.01.04-.94,2.49-2.32,4.96-3.9,7.38l-8.84,11.51h-.04c-2.06,2.54-3.99,4.9-5.49,7.13-.57.73-1.15,1.48-1.74,2.25l-1.86,2.41-1.95,2.53c-2.99,3.88-6.25,8.11-9.54,12.4-2.96,3.84-5.96,7.72-8.78,11.39-2.83,3.67-5.49,7.14-7.83,10.17l-.81-.07c-1.05-.8.39-3,.82-3.87,2.62-5.29,5.43-10.47,8.06-15.74.98-1.91,1.93-3.84,2.83-5.79,1.17-2.48,2.25-5.02,3.25-7.58-.55-4.52-1.32-8.9-2.24-13.11-10.49-47.72-44-76.53-85.35-97.96-1.04-.53-6.35-4.97-5.68-2.13.83,3.42,1.44,6.87,1.95,10.33-.43.56-7.07-2.41-8.16-3.11-4.13-2.74-5.22-8.2-8.88-12.28-4.91-5.48-12.27-8.35-17.37-13.68-3.21-.04,2.13,10.54,2.73,11.57,2.52,4.4,6.86,8.36,9.73,12.55-7.05,1.53-11.86,1.42-16.64,7.64-4.35,5.64-8.57,12.66-13.17,18.35l-27.36,61.36c3.08,8.68,2.18,24.29,14.39,24.25,4.69-.03,5.55-2.99,8.4-3.64,4.1-.95,8.06,2.25,11.91-.89.5-.4,3.92-5.25,4.26-6,2.7-5.76.87-10.04,5.88-16.09,8.24-9.95,13.73-10.24,23.85-15.04,7.34-3.48,13.72-15.45,13.34-24.06l4.19,5.98c1.13,3.66,3.15,8.47,3.71,12.18.89,6.06.24,13.08.96,19.24l4.51-2.61c1.23,6.94-1.49,10.57-5.74,15.04l-3.9,8.27-2.02-39.3c-1.54-.36-1.47.73-2.11,1.46-8.09,9.22-4.25,17.23-4.93,28.69-.64,10.31-3.29,21.15-4.49,31.8-.33,2.82-.53,5.64-.57,8.43-1.92,4.39-5.47,6.95-7.58,11.23-.11.19-.2.41-.29.61-4.73,10.61-3.57,20.63-16.41,24.56-18.12,5.57-40.07,5.77-58.59,10.97-18.58,5.19-18.76,17.31-28.47,31.55-10.32,15.1-26.81,30.69-34.34,46.9-4.22,9.05-7.05,19.55-11.21,28.75-.22,6.93,7.09,3.2,10.75,1.94,5.39-1.87,18.32-9.42,21.42-14.26,3.02-4.72-.21-7.66-.98-11.98-1.43-8.1.61-5.51,4.7-8.56,7.02-5.23,6.49-9.24,10.39-16.39,8.29-15.12,20.93-26.96,36.54-33.1,14.08.61,28.23,1.22,42.28,2.5-8.03,12.38-15.55,25.24-24.06,37.22-3.63,5.11-8.61,12.47-12.93,16.7-2.58,2.53-6.63,4.46-8.65,6.6-3.24,3.43-5.43,9.47-9.77,13.78-12.74,12.65-30.65,23.8-44.4,36.44-6.22,5.69-11.76,12.12-17.8,17.98-3.02,2.93-15.58,12.8-16.78,15.2-2.16,4.3,5.55,8.75,8.9,9.85ZM181.14,303.6c1.3-9.71-7.3-3.34-8.81-5.43-1.31-1.82,3.92-8.09,7.42-6.45,2.58,1.2,4.99,10.03,1.38,11.87ZM217.21,235.02c-1.34,2.22-3.16,3.89-4.36,6.25-.89,1.77-.98,4.8-2.03,5.84-2.28,2.24-8.4.6-9.57,2.4-1.72,2.67.03,9.19-.68,11.81-.16.64-6.8,7.45-8.24,9.93-1.37,2.35-3.52,9.34-4.91,10.79-1.72,1.77-5.22.7-7.26,1.9-1.75-2.41,7.93-18.39,9.87-21.17,1.05-1.5,3.42-2.54,3.94-3.96.98-2.61.61-8.24,1.98-11.33.87-1.97,2.84-2.4,3.87-4.03,1.02-1.59,1.33-5.24,2.37-6.28,1.04-1.04,14.51-2.79,15.03-2.16ZM356.19,442.32s13.21-10.38,32.05-17.54c20.78-7.9,16.52-3.04,19.7,10.87h.22c1.99,8.27,6.08,16.29,11.25,23.58.05.05.07.1.12.14,22.94,29.98,56.87,37.54,56.87,37.54-22.5-.02-45.97-9.54-62.48-29.87-16.49-20.32-13.32-35.22-20.63-33.18-8.56,2.77-21.71,5.51-29.84,7.07t-.04,0c-.56.14-1.59.68-2.05.39-3.17.62-5.17.96-5.17.96ZM294.88,265.24c-6.99-13.13-17.97-22.78-28.91-32,7.51,3.45,15.69,8.49,22.35,13.58,10.74,8.22,22.19,18.82,21.94,33.99-.36.47-9.99-3.75-10.67-4.55-1.26-1.46-3.33-8.44-4.71-11.02ZM253.61,386.26c.39-11.16,11.2-22.45,21.02-25.15,7.96-2.2,17.46-2.46,25.6-1.04.46,2.9.66,6.02-.3,8.81-17.42-2.04-34.45,4.06-46.33,17.39ZM243.9,348.06c.56-4.4,2.97-8.63,6.19-12.06,2.93-3.12,6.54-5.56,10.06-6.84,6.17-2.24,12.52-1.98,18.74-2.79,3.93-.5,7.81-1.41,11.55-3.66,3.22-1.92,6.79-5.19,9.54-7.86.88-.03,5.5,9.53,4.7,11.15-.1.18-.96.78-2.22,1.55-3.17,1.98-8.75,5.14-9.93,5.76-.14.06-.25.14-.4.22h-.02c-3.19,1.62-12.31,6.05-14.49,6.4-4.06.65-7.02-4.7-7.66-5.1-.02-.01-.04-.03-.06-.03-.13,0-.27.01-.47.05h-.04c-2.55.55-10.38,4.18-12.46,5.2-4.51,2.24-8.88,5.16-13.03,8.01ZM182.89,471.74c1.99-8.03,5.87-17.14,11.51-22.95,1.59-1.66,10.24-8.69,11.89-8.7,1.33,0,7.56,4.55,8.89,5.96-11.93,6.59-22.46,16.02-32.29,25.69Z"/><path class="cls-1" d="M789.39,277.54h50.18l18.8,119.41h-40.96l-3.58-21.3h-79.34l-20.41,21.3h-42.44l117.74-119.41ZM810.93,350.76l-7.32-47.62-45.63,47.62h52.95Z"/><path class="cls-1" d="M924.09,277.54h37.46l-36.56,89.87h84.69l-11.99,29.54h-122.14l48.55-119.41Z"/><path class="cls-1" d="M1065.99,277.54h37.46l-36.56,89.87h84.69l-11.99,29.54h-122.14l48.55-119.41Z"/><path class="cls-1" d="M1232.29,352.47h-63.84l12.34-30.43h63.84l-12.34,30.43Z"/><path class="cls-1" d="M1293.31,358.82c-1.16,3.22-1.58,4.47-1.91,6.27-.6,3.22,1.03,5.37,4.21,6.09,3.37.72,13.42,1.25,22.83,1.25,15.5,0,31.25-.36,35.96-.89,11.49-1.25,16.62-5.01,18.13-13.07.64-3.4-.55-5.91-3.16-6.8q-3.45-1.25-22.98-1.43h-33.95c-16.79,0-26.95-.9-32.52-2.69-8.69-2.86-12.16-8.95-10.39-18.44,2.58-13.79,11.55-31.15,19.97-38.67,12.19-10.92,28.22-13.79,76.38-13.79,36.72,0,45.62.72,54.03,4.12,7.03,2.86,9.8,8.77,8.12,17.72-.8,4.3-2.16,8.59-5.31,15.58h-36.35c.74-1.97,1.16-3.22,1.32-4.12,1.2-6.44-2.99-7.7-24.57-7.7-15.31,0-31.83.54-37.84,1.08-7.7.72-13.18,5.37-14.46,12.17-.47,2.51.27,4.48,1.73,5.55,2.77,1.97,2.95,1.97,17.83,2.33h34.87c2.21,0,8.45.18,18.16.54,13.55.54,17.88,1.07,22.76,3.58,6.81,3.04,9.21,8.95,7.5,18.08-2.55,13.61-10.76,29.9-19.28,37.95-12.11,11.46-28.14,14.32-79.43,14.32-32.47,0-42.34-.54-51.56-2.51-10.97-2.51-15.06-8.23-13.22-18.08,1.01-5.37,2.26-9.13,6.4-18.44h36.72Z"/><path class="cls-1" d="M1498.5,307.08h-54.8l11.99-29.54h147.05l-11.99,29.54h-54.8l-36.56,89.87h-37.45l36.56-89.87Z"/><path class="cls-1" d="M1655.43,277.54h50.18l18.8,119.41h-40.96l-3.58-21.3h-79.34l-20.41,21.3h-42.44l117.74-119.41ZM1676.97,350.76l-7.32-47.62-45.63,47.62h52.95Z"/><path class="cls-1" d="M1788.02,277.54h106.09c32.66,0,40.91,5.19,37.49,23.45-2.65,14.14-9.75,30.43-16.61,38.49-6.1,6.98-11.62,9.85-23.13,12.17,5.4.72,7.03.9,9.45,1.79,3.6,1.43,5.4,4.66,4.6,8.95-.5,2.68-.99,4.3-5.35,15.75l-7.76,18.8h-37.82l5.92-14.86c.99-2.33,1.79-4.65,2.13-6.44.74-3.94-.46-6.44-3.73-7.7-1.9-.72-5.52-1.07-12.71-1.07h-57.56l-12.27,30.08h-37.27l48.55-119.41ZM1859.42,337.7c10.89,0,15.26-.72,19.39-3.04,3.32-1.97,5.08-4.48,7.66-10.38,1.41-3.58,2.63-7.16,3-9.13.7-3.76-.67-6.27-4.16-7.34-2.78-.89-3.89-.89-12.01-.89h-59.96l-12.59,30.79h58.67Z"/></svg>