<?xml version="1.0" encoding="UTF-8"?><svg id="Layer_1" xmlns="http://www.w3.org/2000/svg" viewBox="0 0 2000 455.33"><defs><style>.cls-1{fill:#161617;}</style></defs><path class="cls-1" d="M302.11,146.38l-160.29,162.57h57.78l27.79-29h108.01l4.87,29h55.77l-25.59-162.57h-68.33ZM259.35,246.07l62.12-64.83,9.97,64.83h-72.09Z"/><polygon class="cls-1" points="536.5 146.38 485.5 146.38 419.41 308.95 585.71 308.95 602.02 268.73 486.72 268.73 536.5 146.38"/><polygon class="cls-1" points="729.68 146.38 678.69 146.38 612.6 308.95 778.89 308.95 795.21 268.73 679.91 268.73 729.68 146.38"/><polygon class="cls-1" points="818.2 248.38 905.11 248.38 921.91 206.95 835 206.95 818.2 248.38"/><path class="cls-1" d="M1160.55,150.77c-11.44-4.63-23.57-5.61-73.56-5.61-65.56,0-87.39,3.9-103.99,18.77-11.46,10.24-23.67,33.88-27.18,52.65-2.42,12.92,2.31,21.21,14.14,25.1,7.58,2.44,21.42,3.66,44.28,3.66h46.22q26.59.24,31.29,1.95c3.54,1.22,5.16,4.63,4.3,9.26-2.05,10.97-9.04,16.09-24.68,17.79-6.42.73-27.86,1.22-48.96,1.22-12.81,0-26.49-.73-31.08-1.71-4.34-.97-6.56-3.9-5.74-8.29.46-2.44,1.03-4.14,2.6-8.53h-49.99c-5.64,12.67-7.35,17.79-8.72,25.1-2.51,13.41,3.06,21.2,18,24.62,12.56,2.68,25.99,3.41,70.2,3.41,69.83,0,91.66-3.9,108.15-19.5,11.6-10.97,22.79-33.15,26.25-51.67,2.33-12.43-.94-20.47-10.22-24.62-6.64-3.41-12.54-4.14-30.99-4.87-13.22-.49-21.72-.73-24.73-.73h-47.48c-20.25-.49-20.5-.49-24.27-3.17-1.99-1.46-2.99-4.14-2.35-7.56,1.73-9.26,9.2-15.6,19.68-16.57,8.17-.73,30.67-1.46,51.52-1.46,29.39,0,35.1,1.71,33.46,10.48-.23,1.22-.8,2.93-1.8,5.61h49.49c4.29-9.51,6.14-15.36,7.24-21.21,2.28-12.19-1.49-20.23-11.06-24.13Z"/><polygon class="cls-1" points="1409.46 146.38 1209.26 146.38 1192.94 186.59 1267.54 186.59 1217.77 308.95 1268.76 308.95 1318.54 186.59 1393.14 186.59 1409.46 146.38"/><path class="cls-1" d="M1481.2,146.38l-160.29,162.57h57.78l27.79-29h108.01l4.87,29h55.76l-25.59-162.57h-68.33ZM1438.44,246.07l62.12-64.83,9.97,64.83h-72.09Z"/><path class="cls-1" d="M1806.16,146.38h-144.44l-66.09,162.57h50.74l16.71-40.95h78.37c9.8,0,14.73.49,17.31,1.46,4.45,1.71,6.08,5.12,5.07,10.48-.46,2.44-1.55,5.61-2.9,8.77l-8.06,20.23h51.5l10.57-25.59c5.93-15.6,6.59-17.79,7.28-21.45,1.1-5.85-1.35-10.24-6.26-12.19-3.29-1.22-5.5-1.46-12.86-2.44,15.67-3.17,23.18-7.07,31.49-16.57,9.34-10.97,19.01-33.15,22.62-52.4,4.65-24.86-6.58-31.93-51.05-31.93ZM1799.85,197.56c-.5,2.68-2.16,7.56-4.08,12.43-3.51,8.04-5.91,11.45-10.43,14.14-5.61,3.17-11.57,4.14-26.4,4.14h-79.88l17.14-41.92h81.64c11.05,0,12.56,0,16.35,1.22,4.75,1.46,6.62,4.88,5.66,9.99Z"/></svg>