<?xml version="1.0" encoding="UTF-8"?><svg id="Layer_1" xmlns="http://www.w3.org/2000/svg" viewBox="0 0 2000 1773.38"><defs><style>.cls-1{fill:#f2f3f2;}</style></defs><path class="cls-1" d="M971.19,747.18l-27.43,35.73c9.2-11.23,19.3-23.3,27.47-35.73h-.03Z"/><path class="cls-1" d="M1844.12,1128.05c-31.3,6.1-49.93-24.93-82.6-17.8-19.37,4.23-41.03,28.4-61.47,33.77l19,4.9c28.83-1.7,15.6,7.6-1.5,12.6-68.17,20.03-126.4-5.47-181.03-50.43-31.13-25.63-60.5-65.03-102.7-72.13-7.77-1.3-23.27.7-26.9-.67-40.87-58.37-89.17-65.13-89.17-65.13,47.87-17.83,96.43-37.6,148.23-39.7,2.93-.1,5.17-.5,6.43,3.13-9.43,6.13-21.83,13.8-27.3,24,31.17-6.9,60.97-16.33,93.43-10.33,58.17,10.77,91.77,68.57,148.33,83.37,8.43,2.2,22.27-1.17,15.23,7.77-15.8,20.03-31.9,9.83-52.77,7.3,4.67,23.53,36.7,38.57,57.07,35.23,12.87-2.07,26.23-13.87,38.63-16.67,29.87-6.77,60.43,22.9,78.2,45.23l20.87,15.57Z"/><path class="cls-1" d="M865.45,589.44c-2.45,1.13-9.63,2.98-7.59,7.03,28.84,16.58,80.68-10.65,106.13,6.44,13.1,8.8,15.16,23.76,1.01,32.18-6.27,3.75-46.4,17.76-46.08,25.39.27,6.16,20.43,1.9,25.08,3.31,2.94.86,3.49,5.56,7.38,7.73,7.22,4.04,16.07,2.78,23.64,4.69-3.54,6.63-7.99,12.48-12.87,17.98-8.2,9.24-17.57,17.49-25.72,26.74,3.1,6.54,21.06,4.25,19.81,11.97l-21.22,25.78-21.06,25.6-27.95,33.98c-2.33-10.21-4.7-20.32-7.15-30.25-1.85-7.53-3.75-14.98-5.76-22.32-.27-.96-.51-1.89-.79-2.82-13.53-48.91-31.36-94.31-63.87-136.12-33.83-43.45-104.36-103.65-152.21-128.07-28.6-14.61-64.49-24.25-94.86-35.84-2.46-.93-13.25,2.35-3.55-4.94,8.12-6.13,42.07-17.11,52.75-18.88,19.72-3.22,39.28.58,58.86,2.69,1.38,1.1,2.52,4.93-2.81,4.46-6.99-.58-12.39.48-19.1,2.13l-18.16,10.1c36.27,16.72,71.22-19.53,106.03,2.54-9.02,5.55-21.05,4.39-28.14,13.75,10.17,7.1,27.64,7.09,38.85,3.85,10.5-3.03,17.82-13.85,27.79-17.74l-6.47,21.49-13.45,12.29c5.79-.29,11.75.31,17.43-1.17,4.68-1.24,25.82-19.04,25.31-2.1-.49,16.41-26.22,31.55-38.57,37.53,24.23,19.61,37.64,1.43,57.42-7.15,5.54-2.39,29.66-10.06,34.34-10.23l54.04-1.98-15.84,32.95-27.74,9.43c-.54.84,1.56,3.26,2.58,3.73,15.36,7.24,68.5-9.11,83.86-17.85,2.48-1.42,22.18-20.03,20.47-9.21-8.43,53.12-67.24,45.08-101.83,60.9Z"/><path class="cls-1" d="M471.83,501.98c-7.33-1.15-40.36-50.35-22.47-59.83,5.6-1.51,40.98,32.42,44.59,39.89,3.41,7.05-18.36,20.53-22.12,19.94Z"/><path class="cls-1" d="M1950.86,112.05c-265.1,74.9-529.37,163.8-788.7,258.53l-.67.23c-171,62.5-148.63,190.13-173.73,332.97h-.07c-.17,6.8-1.77,13.6-4.37,20.37,0,.07-.07.07-.03.13-2.93,7.73-7.2,15.37-12.1,22.9l-27.43,35.73-.1.03c-6.4,7.87-12.4,15.2-17.07,22.1-1.77,2.27-3.57,4.6-5.4,7l-5.8,7.47-6.03,7.87c-9.3,12.07-19.43,25.17-29.63,38.47-9.2,11.93-18.47,24-27.27,35.37-8.77,11.4-17.03,22.17-24.3,31.57l-2.5-.23c-3.27-2.47,1.2-9.3,2.53-12,8.17-16.43,16.87-32.5,25.03-48.87,3.03-5.93,6-11.9,8.77-17.97,3.63-7.7,7-15.57,10.13-23.53-1.73-14.03-4.1-27.6-6.97-40.7-32.57-148.1-136.57-237.57-264.9-304.07-3.23-1.63-19.7-15.43-17.63-6.6,2.57,10.6,4.47,21.3,6.03,32.07-1.33,1.73-21.93-7.5-25.33-9.67-12.83-8.53-16.2-25.47-27.57-38.13-15.23-17-38.1-25.9-53.93-42.47-9.97-.1,6.63,32.7,8.47,35.93,7.83,13.67,21.3,25.93,30.2,38.97-21.9,4.73-36.83,4.4-51.67,23.7-13.5,17.5-26.6,39.3-40.87,56.93l-84.93,190.47c9.57,26.97,6.77,75.4,44.67,75.27,14.57-.1,17.23-9.27,26.07-11.3,12.73-2.93,25.03,7,36.97-2.77,1.53-1.23,12.17-16.3,13.23-18.6,8.4-17.9,2.7-31.13,18.23-49.97,25.6-30.87,42.63-31.77,74.03-46.67,22.8-10.8,42.6-47.93,41.4-74.67l13.03,18.53c3.5,11.37,9.77,26.3,11.5,37.83,2.77,18.83.73,40.57,3,59.73l14-8.13c3.83,21.57-4.63,32.83-17.83,46.7l-12.1,25.67-6.27-122c-4.8-1.13-4.57,2.27-6.57,4.53-25.13,28.6-13.2,53.47-15.3,89.03-1.97,32-10.23,65.67-13.97,98.7-1,8.77-1.63,17.53-1.77,26.2-5.97,13.6-17,21.57-23.53,34.83-.37.57-.63,1.27-.9,1.9-14.67,32.93-11.1,64.03-50.97,76.23-56.27,17.3-124.37,17.93-181.87,34.07-57.67,16.1-58.23,53.73-88.4,97.93-32,46.87-83.2,95.23-106.6,145.57-13.1,28.07-21.87,60.7-34.77,89.23-.7,21.53,22,9.93,33.37,6.03,16.7-5.8,56.87-29.23,66.47-44.27,9.37-14.63-.63-23.8-3.03-37.2-4.43-25.13,1.9-17.1,14.57-26.57,21.8-16.23,20.13-28.7,32.27-50.87,25.73-46.93,64.97-83.67,113.4-102.73,43.7,1.9,87.63,3.8,131.27,7.77-24.93,38.4-48.27,78.33-74.7,115.53-11.27,15.83-26.7,38.7-40.13,51.87-8,7.87-20.57,13.83-26.87,20.47-10.03,10.63-16.87,29.4-30.3,42.77-39.53,39.27-95.13,73.9-137.83,113.1-19.3,17.67-36.5,37.63-55.27,55.83-9.37,9.1-48.37,39.73-52.1,47.17-6.7,13.37,17.23,27.17,27.63,30.57,20.67,6.77,72.3,6,89.37-7.9,9.77-7.9,10.27-53.33,15.47-67.63,2.23-2.23,31.4,5.97,42.37-1.97,6.47-4.73,12.73-24.47,17.37-32.07,25.1-40.87,57.4-80,100.17-100.67,9.97-4.87,24.13-6.93,32.57-12.63,9.27-6.3,16.5-24.27,25.3-33.7,6.53-7.03,18.1-15.8,26.07-21.3,74.27-51.37,154.53-94.27,228.73-145.93l8.93-3.2c90.87,17.23,199.53,79.5,292.4,69.53,23.5-2.53,47.23-9.73,71-16.27l-.1.13c26.77,30.37,25.6,83.83,53.37,113.7,67.4,72.23,169.1,63.23,256.37,76.97,83.17,13.1,104.17,77.83,151.7,134.67,29,34.67,43.03,20.67,71.37,38.9,16.93,10.93,30.53,41.77,52.13,41.67,12.23-.03,37.43-11.9,38.57-26.77.73-9.97-13.8-50.93-19.67-59.53-18.7-27.5-48.63-10.07-70.3-16.9-6.13-1.93-38.73-26.9-44.83-32.77-36.67-34.97-59.63-98.13-85.93-146.33,40.9,3.3,110.73,14.5,136.9,20.5,39.27,9,90.77,76.3,110.17,112.27,13.97,25.93,30.13,83.2,50.5,98,17.33,12.57,38.83,11.83,57.53,20.3,22.3,10.17,54.63,41.93,80.57,35.8,13.13-3.1,30.33-18.77,29.1-33.87-.57-8.13-21.2-63.67-26-69.2-12.17-14.23-50.77-1.67-68.57-5.8-5.07-1.17-59.53-42.23-63.77-47.8-10.8-13.93-22.57-51.97-32-70.73-23.57-46.47-49.77-91.53-75.73-136.53-54.47-17.6-110.1-25.93-157.8-62.37-4-8.67-7.43-17.47-10.67-26.43-10.57-26.2-31.1-116.63-105.17-184.73-.5-.53-1.07-1.07-1.67-1.6l-.07-.03c-.8-.7-1.57-1.37-2.37-2.07-1.57-1.4-3.13-2.77-4.63-4.1-8.83-7.57-18.5-14.43-28.57-20.6-8.3-5.13-16.6-9.43-24.6-13.17-.03,0-.07-.07-.07-.07-.03.03-.1-.03-.1-.03-2.2-1-4.37-1.93-6.5-2.87-.1-.03-.23-.13-.3-.17-.5-.2-1-.4-1.5-.6-2.83-1.17-5.67-2.33-8.5-3.33-25.93-9.9-52.87-15.1-77.5-14.07-.4,0-.8.03-1.17.1-.47-.03-.93,0-1.43.1-.97.03-1.47.07-1.47.07-18.53,1.53-37.33,8.47-56.17,8.77-15.8.2-36.33-3.53-51.97-7.2l-26.03-1.27c11.17-12.77,28.4-42.67,90.13-49.83,45.97-5.37,81.37-15.9,88.7-18.8,64.63-22.47,97.7-48.33,97.7-48.33l-310.73,13.73c-36.93,61.87-79.77,97.1-79.77,97.1l.63.47-8.13-.4,7.73-10.97-.07-.07c.1-.07.17-.2.23-.27,19.13-24.77,34.53-47.17,47-67.8,3.57-5.87,6.8-11.5,9.87-17.03,12.77-22.97,21.87-43.87,28.7-63.77,2.53-7.37,4.77-14.6,6.77-21.77,5.4-19.8,9-38.93,12.07-58.6,1.07-6.93,2.1-13.93,3.13-21.03,2.47-17.4,5.07-35.5,8.5-55.07,1.13-6.3,2.33-12.83,3.7-19.53,3.8-18.77,8.63-38.93,15.23-61.07,1.97-6.67,4.1-13.47,6.4-20.5.3-.87.57-1.7.87-2.57,9.4-28.37,35.73-53.8,70.43-76.03,105.97-68.2,289.97-107.47,307.47-114.57l363.27-105.43c24.1-16.43,48.93-33.67,70.57-54.03,21.67-20.47,40.1-44.03,51.4-73.2v-.07l-.87.27ZM400.45,785.15c4.03-30.13-22.67-10.37-27.33-16.83-4.07-5.67,12.17-25.1,23.07-20,8,3.73,15.47,31.13,4.27,36.83ZM498.86,591.71c-2.77,5.5-3.03,14.9-6.27,18.13-7.1,6.97-26.1,1.87-29.7,7.43-5.33,8.3.07,28.53-2.1,36.67-.5,1.97-21.1,23.13-25.57,30.83-4.27,7.3-10.93,28.97-15.27,33.5-5.33,5.5-16.2,2.17-22.53,5.9-5.43-7.47,24.6-57.07,30.63-65.73,3.27-4.67,10.6-7.9,12.2-12.3,3.03-8.1,1.9-25.57,6.13-35.17,2.73-6.1,8.83-7.43,12.03-12.47,3.17-4.93,4.1-16.27,7.33-19.5,3.27-3.23,45.03-8.63,46.67-6.7-4.17,6.87-9.8,12.07-13.57,19.4ZM405.89,1307.11c6.17-24.93,18.2-53.23,35.73-71.27,4.93-5.13,31.77-26.97,36.9-27,4.13,0,23.47,14.13,27.6,18.53-37.03,20.43-69.7,49.7-100.23,79.73ZM769.19,987.81c-54.07-6.37-106.93,12.6-143.8,53.97,1.2-34.67,34.77-69.7,65.27-78.1,24.73-6.8,54.2-7.63,79.5-3.23,1.4,9.03,2.03,18.67-.97,27.37ZM783.96,854.68c-.3.6-3,2.47-6.9,4.83-9.87,6.13-27.17,15.93-30.83,17.87-.4.2-.77.43-1.23.7h-.07c-9.9,5.03-38.2,18.8-44.97,19.87-12.63,2-21.8-14.6-23.8-15.83-.03-.07-.1-.1-.17-.1-.4.03-.87.03-1.47.17h-.1c-7.93,1.7-32.23,12.97-38.7,16.13-14,6.97-27.53,16.03-40.43,24.87,1.7-13.67,9.2-26.8,19.2-37.43,9.1-9.7,20.3-17.3,31.23-21.23,19.17-6.93,38.87-6.13,58.2-8.67,12.17-1.53,24.23-4.37,35.83-11.37,10-5.93,21.07-16.1,29.6-24.4,2.73-.1,17.1,29.57,14.6,34.6ZM768.12,700.31c-3.9-4.57-10.33-26.2-14.6-34.23-21.73-40.73-55.8-70.7-89.77-99.3,23.3,10.7,48.7,26.37,69.4,42.13,33.3,25.53,68.87,58.43,68.1,105.5-1.1,1.47-31.03-11.63-33.13-14.1ZM1043.32,1161.35c64.5-24.53,51.3-9.47,61.13,33.73l.7.07c6.2,25.63,18.87,50.53,34.9,73.13.17.17.23.33.37.47,71.23,93.03,176.53,116.53,176.53,116.53-69.83-.07-142.7-29.63-193.93-92.7-51.2-63.1-41.37-109.33-64.07-103-26.57,8.6-67.37,17.1-92.63,21.93q-.03.07-.1.03c-1.77.43-4.93,2.1-6.37,1.23-9.83,1.9-16.03,2.97-16.03,2.97,0,0,41-32.2,99.5-54.4ZM1445.12,650.31l-216.33,29.83-148.77,20.57c-2.8,14-5.73,28.4-8.8,43.07-1.03,4.93-2.17,9.8-3.4,14.53l115.17-11.6,203.43-20.47c42.57-4.3,77.43-7.83,98.63-10,112.03-11.6,169.6-94.9,169.6-94.9l-209.53,28.97ZM1581.82,435.78h-.07l-240.83,56.77-213.33,50.33c-3.03,5.6-5.87,11.33-8.53,17.2-6.4,14.27-11.87,29.5-16.63,45.53l164.23-32.37,198.23-39c88-17.33,164.93-32.57,202.3-39.97,119.33-23.87,173.7-119.63,173.7-119.63l-259.07,61.13ZM1518.49,357.08l-45.37,13.23c-4.83,1.73-12.53,3.83-28.77,8.17-40.37,10.77-115.43,30.83-184.43,59.77,0,0-.1,0-.27.1-11.93,5.03-22.87,9.97-32.87,14.83h-.1c-2.77,1.1-5.73,2.37-8.9,3.93-9.43,4.57-18.2,9.57-26.23,14.97-.23.1-.47.27-.67.43-20.63,13.83-36.93,30.2-49.97,48.83l198.43-47.6,240.77-57.8c62.57-15.07,114.67-27.57,143.53-34.57,121.63-29.5,173.77-130.1,173.77-130.1l-378.93,105.8ZM1468.59,554.45l-199.77,37.9-171.8,32.57c-4.63,17.47-8.7,35.83-12.73,55.07l144.13-21.83,212.27-32.13c68.27-10.4,126.13-19.17,156.33-23.83,111.27-17.17,165-103.37,165-103.37l-293.43,55.63ZM1061.72,779.38c-7.37,22.8-16.7,43.67-26.8,62.5,0,0,288.77-16.23,303.7-17.13,112.5-6.6,173.33-87.17,173.33-87.17l-450.23,41.8Z"/></svg>