<?xml version="1.0" encoding="UTF-8"?><svg id="Layer_1" xmlns="http://www.w3.org/2000/svg" viewBox="0 0 2000 365.95"><defs><style>.cls-1{fill:#161617;}</style></defs><polygon class="cls-1" points="693.97 95.44 639.08 95.44 567.91 270.5 746.95 270.5 764.52 227.2 640.38 227.2 693.97 95.44"/><polygon class="cls-1" points="789.27 205.29 882.85 205.29 900.93 160.66 807.35 160.66 789.27 205.29"/><path class="cls-1" d="M1157.87,100.18c-12.31-5-25.37-6.04-79.19-6.04-70.58,0-94.1,4.19-111.95,20.22-12.33,11.01-25.5,36.46-29.28,56.68-2.6,13.9,2.5,22.82,15.22,27.01,8.17,2.63,23.06,3.96,47.67,3.96h49.76q28.63.26,33.7,2.08c3.8,1.33,5.54,5,4.61,9.97-2.19,11.81-9.71,17.33-26.57,19.18-6.9.78-29.98,1.3-52.7,1.3-13.79,0-28.52-.78-33.47-1.85-4.68-1.04-7.05-4.19-6.17-8.9.47-2.63,1.09-4.48,2.79-9.19h-53.82c-6.06,13.64-7.91,19.15-9.39,27.01-2.68,14.44,3.31,22.85,19.39,26.52,13.53,2.89,27.98,3.67,75.6,3.67,75.18,0,98.68-4.19,116.43-21,12.49-11.81,24.54-35.68,28.26-55.64,2.5-13.38-1.02-22.04-11.01-26.49-7.16-3.67-13.48-4.48-33.36-5.26-14.23-.52-23.37-.78-26.62-.78h-51.11c-21.81-.52-22.09-.52-26.15-3.41-2.13-1.59-3.2-4.48-2.52-8.15,1.87-9.97,9.91-16.79,21.18-17.83,8.8-.81,33.03-1.59,55.48-1.59,31.64,0,37.79,1.85,36.02,11.29-.26,1.3-.86,3.15-1.95,6.04h53.3c4.61-10.25,6.61-16.55,7.78-22.85,2.45-13.12-1.61-21.78-11.92-25.97Z"/><polygon class="cls-1" points="1425.88 95.44 1210.33 95.44 1192.74 138.75 1273.07 138.75 1219.49 270.5 1274.4 270.5 1327.98 138.75 1408.32 138.75 1425.88 95.44"/><path class="cls-1" d="M1503.12,95.44l-172.59,175.06h62.2l29.93-31.25h116.3l5.23,31.25h60.06l-27.56-175.06h-73.57ZM1457.06,202.79l66.88-69.8,10.75,69.8h-77.63Z"/><path class="cls-1" d="M1852.99,95.44h-155.52l-71.15,175.06h54.62l18.01-44.11h84.37c10.54,0,15.85.55,18.63,1.59,4.79,1.82,6.56,5.52,5.47,11.27-.5,2.63-1.67,6.04-3.12,9.47l-8.67,21.78h55.43l11.4-27.56c6.38-16.81,7.08-19.15,7.83-23.11,1.17-6.3-1.46-11.01-6.74-13.12-3.54-1.3-5.93-1.56-13.84-2.63,16.86-3.41,24.96-7.6,33.91-17.83,10.04-11.81,20.45-35.7,24.33-56.42,5.02-26.78-7.08-34.4-54.96-34.4ZM1846.19,150.56c-.55,2.89-2.34,8.15-4.4,13.38-3.77,8.67-6.35,12.34-11.24,15.22-6.04,3.41-12.44,4.48-28.42,4.48h-85.98l18.45-45.15h87.88c11.89,0,13.53,0,17.62,1.33,5.1,1.56,7.13,5.23,6.09,10.75Z"/><path class="cls-1" d="M432.45,227.04l53.53-131.6h-54.91l-22.25,54.73,25.16,7.57h-69.85l-61.42-62.3h-46.95l-61.42,62.3H53.13l120.36,21.18-90.28,91.58h70.86l42.05-42.68,59.65.05v42.63h46.95l57.07-44.73,15.8,6.12,70.89,27.45-75.81-15.3-10.77,26.47h179.07l17.57-43.3h-123.92l-.16-.16ZM302.73,259.63h-35.76v-42.6l-75.62-.08-42.05,42.68h-39.87l77.27-78.38,116.04,20.43v57.95ZM302.73,157.74h-92.88l50.69-51.42h42.18v51.42Z"/></svg>