<?xml version="1.0" encoding="UTF-8"?><svg id="Layer_1" xmlns="http://www.w3.org/2000/svg" viewBox="0 0 2000 365.95"><defs><style>.cls-1{fill:#161617;}</style></defs><path class="cls-1" d="M613.31,147.05h-117.38l-87.42-88.68h0s-66.87,0-66.87,0l-87.42,88.68H53.13l171.35,30.16-128.5,130.36h100.88l59.88-60.75,84.9.09v60.66h66.87s81.24-63.68,81.24-63.68l164.42,63.68-107.08-108.62,66.22-51.9ZM348.46,73.84h60.05v73.21h-132.22l72.17-73.21ZM357.59,292.1v-60.66l-107.66-.09-59.89,60.75h-56.74l109.99-111.58,165.22,29.08v82.49h-50.92Z"/><path class="cls-1" d="M771.36,123.54l-117.19,118.86h42.24l20.32-21.21h78.97l3.56,21.21h40.77l-18.71-118.86h-49.95ZM740.09,196.43l45.42-47.4,7.29,47.4h-52.71Z"/><polygon class="cls-1" points="942.72 123.54 905.43 123.54 857.11 242.4 978.69 242.4 990.62 213 906.33 213 942.72 123.54"/><polygon class="cls-1" points="1083.96 123.54 1046.67 123.54 998.35 242.4 1119.93 242.4 1131.86 213 1047.56 213 1083.96 123.54"/><polygon class="cls-1" points="1148.67 198.12 1212.21 198.12 1224.49 167.83 1160.95 167.83 1148.67 198.12"/><path class="cls-1" d="M1398.96,126.75c-8.36-3.39-17.23-4.1-53.78-4.1-47.93,0-63.89,2.85-76.03,13.72-8.38,7.48-17.31,24.77-19.88,38.49-1.77,9.44,1.69,15.5,10.34,18.35,5.54,1.78,15.66,2.67,32.37,2.67h33.79q19.43.18,22.87,1.43c2.59.89,3.77,3.38,3.14,6.77-1.5,8.02-6.61,11.76-18.04,13.01-4.69.53-20.37.89-35.8.89-9.36,0-19.37-.53-22.72-1.25-3.18-.71-4.79-2.85-4.2-6.06.33-1.78.75-3.03,1.9-6.24h-36.55c-4.12,9.27-5.37,13.01-6.37,18.35-1.83,9.8,2.24,15.5,13.16,18,9.18,1.96,19,2.49,51.32,2.49,51.05,0,67.01-2.85,79.06-14.26,8.48-8.02,16.66-24.23,19.19-37.78,1.7-9.09-.69-14.97-7.47-18-4.86-2.5-9.17-3.03-22.66-3.56-9.67-.36-15.88-.54-18.08-.54h-34.71c-14.81-.36-14.99-.36-17.75-2.32-1.45-1.07-2.19-3.03-1.72-5.53,1.27-6.77,6.73-11.4,14.39-12.12,5.98-.54,22.42-1.07,37.67-1.07,21.48,0,25.66,1.25,24.46,7.66-.16.89-.58,2.14-1.32,4.1h36.18c3.14-6.95,4.49-11.23,5.29-15.5,1.67-8.91-1.09-14.79-8.08-17.64Z"/><polygon class="cls-1" points="1580.94 123.54 1434.57 123.54 1422.64 152.95 1477.19 152.95 1440.79 242.4 1478.07 242.4 1514.46 152.95 1569.01 152.95 1580.94 123.54"/><path class="cls-1" d="M1633.39,123.54l-117.19,118.86h42.24l20.32-21.21h78.97l3.56,21.21h40.77l-18.71-118.86h-49.95ZM1602.12,196.43l45.41-47.4,7.29,47.4h-52.71Z"/><path class="cls-1" d="M1870.97,123.54h-105.6l-48.32,118.86h37.1l12.21-29.94h57.3c7.16,0,10.77.36,12.66,1.07,3.26,1.25,4.44,3.74,3.71,7.66-.33,1.78-1.13,4.1-2.12,6.41l-5.89,14.79h37.65l7.72-18.71c4.34-11.4,4.82-13.01,5.32-15.68.8-4.28-.99-7.48-4.58-8.91-2.4-.89-4.02-1.07-9.4-1.78,11.45-2.32,16.95-5.17,23.02-12.12,6.83-8.02,13.9-24.24,16.54-38.31,3.4-18.18-4.81-23.34-37.32-23.34ZM1866.35,160.97c-.37,1.96-1.58,5.52-2.99,9.09-2.57,5.88-4.32,8.37-7.63,10.33-4.1,2.32-8.46,3.03-19.3,3.03h-58.4l12.53-30.65h59.69c8.08,0,9.18,0,11.96.89,3.48,1.07,4.84,3.56,4.14,7.31Z"/></svg>